# Made in Blockbench 4.3.1
mtllib contributor_wings.mtl

o cube
v 0.25 2 0.25
v 0.25 2 -0.25
v 0.25 1.5 0.25
v 0.25 1.5 -0.25
v -0.25 2 -0.25
v -0.25 2 0.25
v -0.25 1.5 -0.25
v -0.25 1.5 0.25
vt 0.265625 0.65625
vt 0.390625 0.65625
vt 0.390625 0.53125
vt 0.265625 0.53125
vt 0.140625 0.65625
vt 0.265625 0.65625
vt 0.265625 0.53125
vt 0.140625 0.53125
vt 0.703125 0.515625
vt 0.828125 0.515625
vt 0.828125 0.390625
vt 0.703125 0.390625
vt 0.390625 0.65625
vt 0.515625 0.65625
vt 0.515625 0.53125
vt 0.390625 0.53125
vt 0.390625 0.65625
vt 0.265625 0.65625
vt 0.265625 0.78125
vt 0.390625 0.78125
vt 0.515625 0.78125
vt 0.390625 0.78125
vt 0.390625 0.65625
vt 0.515625 0.65625
vn 0 0 -1
vn 1 0 0
vn 0 0 1
vn -1 0 0
vn 0 1 0
vn 0 -1 0
usemtl none
f 4/4/1 7/3/1 5/2/1 2/1/1
f 3/8/2 4/7/2 2/6/2 1/5/2
f 8/12/3 3/11/3 1/10/3 6/9/3
f 7/16/4 8/15/4 6/14/4 5/13/4
f 6/20/5 1/19/5 2/18/5 5/17/5
f 7/24/6 4/23/6 3/22/6 8/21/6
o cube
v 0.25 1.5 0.125
v 0.25 1.5 -0.125
v 0.25 0.75 0.125
v 0.25 0.75 -0.125
v -0.25 1.5 -0.125
v -0.25 1.5 0.125
v -0.25 0.75 -0.125
v -0.25 0.75 0.125
vt 0.203125 0.71875
vt 0.328125 0.71875
vt 0.328125 0.53125
vt 0.203125 0.53125
vt 0.140625 0.71875
vt 0.203125 0.71875
vt 0.203125 0.53125
vt 0.140625 0.53125
vt 0.578125 0.578125
vt 0.703125 0.578125
vt 0.703125 0.390625
vt 0.578125 0.390625
vt 0.328125 0.71875
vt 0.390625 0.71875
vt 0.390625 0.53125
vt 0.328125 0.53125
vt 0.328125 0.71875
vt 0.203125 0.71875
vt 0.203125 0.78125
vt 0.328125 0.78125
vt 0.453125 0.78125
vt 0.328125 0.78125
vt 0.328125 0.71875
vt 0.453125 0.71875
vn 0 0 -1
vn 1 0 0
vn 0 0 1
vn -1 0 0
vn 0 1 0
vn 0 -1 0
usemtl none
f 12/28/7 15/27/7 13/26/7 10/25/7
f 11/32/8 12/31/8 10/30/8 9/29/8
f 16/36/9 11/35/9 9/34/9 14/33/9
f 15/40/10 16/39/10 14/38/10 13/37/10
f 14/44/11 9/43/11 10/42/11 13/41/11
f 15/48/12 12/47/12 11/46/12 16/45/12
o hum_bone
v -0.04375 1.4375 0.225
v -0.04375 1.4375 0.125
v -0.04375 0.9375 0.225
v -0.04375 0.9375 0.125
v -0.14375 1.4375 0.125
v -0.14375 1.4375 0.225
v -0.14375 0.9375 0.125
v -0.14375 0.9375 0.225
vt 0.03125 0.84375
vt 0 0.84375
vt 0 1
vt 0.03125 1
vt 0.125 0.84375
vt 0.09375 0.84375
vt 0.09375 1
vt 0.125 1
vt 0.09375 0.84375
vt 0.0625 0.84375
vt 0.0625 1
vt 0.09375 1
vt 0.0625 0.84375
vt 0.03125 0.84375
vt 0.03125 1
vt 0.0625 1
vt 0.125 0.9375
vt 0.125 0.96875
vt 0.15625 0.96875
vt 0.15625 0.9375
vt 0.125 1
vt 0.15625 1
vt 0.15625 0.96875
vt 0.125 0.96875
vn 0 0 -1
vn 1 0 0
vn 0 0 1
vn -1 0 0
vn 0 1 0
vn 0 -1 0
usemtl m_0
f 20/52/13 23/51/13 21/50/13 18/49/13
f 19/56/14 20/55/14 18/54/14 17/53/14
f 24/60/15 19/59/15 17/58/15 22/57/15
f 23/64/16 24/63/16 22/62/16 21/61/16
f 22/68/17 17/67/17 18/66/17 21/65/17
f 23/72/18 20/71/18 19/70/18 24/69/18
o rad_bone
v -0.05 1.9375 0.21875
v -0.05 1.9375 0.13125
v -0.05 0.9375 0.21875
v -0.05 0.9375 0.13125
v -0.1375 1.9375 0.13125
v -0.1375 1.9375 0.21875
v -0.1375 0.9375 0.13125
v -0.1375 0.9375 0.21875
vt 0 0.84375
vt 0.03125 0.84375
vt 0.03125 0.46875
vt 0 0.46875
vt 0.09375 0.84375
vt 0.125 0.84375
vt 0.125 0.46875
vt 0.09375 0.46875
vt 0.0625 0.84375
vt 0.09375 0.84375
vt 0.09375 0.46875
vt 0.0625 0.46875
vt 0.03125 0.84375
vt 0.0625 0.84375
vt 0.0625 0.46875
vt 0.03125 0.46875
vt 0.125 0.84375
vt 0.15625 0.84375
vt 0.15625 0.8125
vt 0.125 0.8125
vt 0.125 0.8125
vt 0.15625 0.8125
vt 0.15625 0.78125
vt 0.125 0.78125
vn 0 0 -1
vn 1 0 0
vn 0 0 1
vn -1 0 0
vn 0 1 0
vn 0 -1 0
usemtl m_0
f 28/76/19 31/75/19 29/74/19 26/73/19
f 27/80/20 28/79/20 26/78/20 25/77/20
f 32/84/21 27/83/21 25/82/21 30/81/21
f 31/88/22 32/87/22 30/86/22 29/85/22
f 30/92/23 25/91/23 26/90/23 29/89/23
f 31/96/24 28/95/24 27/94/24 32/93/24
o f1_bone
v -0.05625 3.4375 0.2125
v -0.05625 3.4375 0.1375
v -0.05625 1.9375 0.2125
v -0.05625 1.9375 0.1375
v -0.13125 3.4375 0.1375
v -0.13125 3.4375 0.2125
v -0.13125 1.9375 0.1375
v -0.13125 1.9375 0.2125
vt 0.15625 1
vt 0.1875 1
vt 0.1875 0.375
vt 0.15625 0.375
vt 0.21875 1
vt 0.25 1
vt 0.25 0.375
vt 0.21875 0.375
vt 0.25 1
vt 0.28125 1
vt 0.28125 0.375
vt 0.25 0.375
vt 0.1875 1
vt 0.21875 1
vt 0.21875 0.375
vt 0.1875 0.375
vt 0.125 0.9375
vt 0.15625 0.9375
vt 0.15625 0.90625
vt 0.125 0.90625
vt 0.125 0.90625
vt 0.15625 0.90625
vt 0.15625 0.875
vt 0.125 0.875
vn 0 0 -1
vn 1 0 0
vn 0 0 1
vn -1 0 0
vn 0 1 0
vn 0 -1 0
usemtl m_0
f 36/100/25 39/99/25 37/98/25 34/97/25
f 35/104/26 36/103/26 34/102/26 33/101/26
f 40/108/27 35/107/27 33/106/27 38/105/27
f 39/112/28 40/111/28 38/110/28 37/109/28
f 38/116/29 33/115/29 34/114/29 37/113/29
f 39/120/30 36/119/30 35/118/30 40/117/30
o f1_bone_shell
v -0.053125 3.440625 0.215625
v -0.053125 3.440625 0.134375
v -0.053125 1.934375 0.215625
v -0.053125 1.934375 0.134375
v -0.134375 3.440625 0.215625
v -0.134375 3.440625 0.134375
v -0.134375 1.934375 0.215625
v -0.134375 1.934375 0.134375
v -0.134375 3.440625 0.1609375
v -0.053125 3.440625 0.1609375
v -0.053125 1.934375 0.1609375
v -0.134375 1.934375 0.1609375
v -0.053125 3.440625 0.1890625
v -0.134375 3.440625 0.1890625
v -0.134375 1.934375 0.1890625
v -0.053125 1.934375 0.1890625
v -0.053125 3.440625 0.134375
v -0.134375 3.440625 0.134375
v -0.053125 1.934375 0.134375
v -0.134375 1.934375 0.134375
v -0.053125 3.440625 0.215625
v -0.134375 3.440625 0.215625
v -0.053125 1.934375 0.215625
v -0.134375 1.934375 0.215625
v -0.1078125 3.440625 0.215625
v -0.1078125 3.440625 0.134375
v -0.1078125 1.934375 0.134375
v -0.1078125 1.934375 0.215625
v -0.0796875 3.440625 0.134375
v -0.0796875 3.440625 0.215625
v -0.0796875 1.934375 0.215625
v -0.0796875 1.934375 0.134375
vt 0.15625 0.90625
vt 0.15625 0.9375
vt 0.125 0.9375
vt 0.125 0.90625
vt 0.15625 0.875
vt 0.15625 0.90625
vt 0.125 0.90625
vt 0.125 0.875
vt 0.25 1
vt 0.2421875 1
vt 0.2421875 0.375
vt 0.25 0.375
vt 0.1875 0.375
vt 0.1953125 0.375
vt 0.1953125 1
vt 0.1875 1
vt 0.21875 1
vt 0.2109375 1
vt 0.2109375 0.375
vt 0.21875 0.375
vt 0.21875 0.375
vt 0.2265625 0.375
vt 0.2265625 1
vt 0.21875 1
vt 0.25 1
vt 0.2421875 1
vt 0.2421875 0.375
vt 0.25 0.375
vt 0.1875 0.375
vt 0.1953125 0.375
vt 0.1953125 1
vt 0.1875 1
vt 0.21875 1
vt 0.2109375 1
vt 0.2109375 0.375
vt 0.21875 0.375
vt 0.21875 0.375
vt 0.2265625 0.375
vt 0.2265625 1
vt 0.21875 1
vn 0 1 0
vn 0 -1 0
vn 1 0 0
vn -1 0 0
vn -1 0 0
vn 1 0 0
vn 0 0 -1
vn 0 0 1
vn 0 0 1
vn 0 0 -1
usemtl m_0
f 41/121/31 42/122/31 46/123/31 45/124/31
f 44/125/32 43/126/32 47/127/32 48/128/32
f 42/129/33 50/130/33 51/131/33 44/132/33
f 48/133/34 52/134/34 49/135/34 46/136/34
f 45/137/35 54/138/35 55/139/35 47/140/35
f 43/141/36 56/142/36 53/143/36 41/144/36
f 58/145/37 66/146/37 67/147/37 60/148/37
f 64/149/38 68/150/38 65/151/38 62/152/38
f 61/153/39 70/154/39 71/155/39 63/156/39
f 59/157/40 72/158/40 69/159/40 57/160/40
o f2_bone_shell
v -0.059375 3.003125 0.209375
v -0.059375 3.003125 0.140625
v -0.059375 1.934375 0.209375
v -0.059375 1.934375 0.140625
v -0.128125 3.003125 0.209375
v -0.128125 3.003125 0.140625
v -0.128125 1.934375 0.209375
v -0.128125 1.934375 0.140625
v -0.128125 3.003125 0.1640625
v -0.059375 3.003125 0.1640625
v -0.059375 1.934375 0.1640625
v -0.128125 1.934375 0.1640625
v -0.059375 3.003125 0.1859375
v -0.128125 3.003125 0.1859375
v -0.128125 1.934375 0.1859375
v -0.059375 1.934375 0.1859375
v -0.059375 3.003125 0.140625
v -0.128125 3.003125 0.140625
v -0.059375 1.934375 0.140625
v -0.128125 1.934375 0.140625
v -0.059375 3.003125 0.209375
v -0.128125 3.003125 0.209375
v -0.059375 1.934375 0.209375
v -0.128125 1.934375 0.209375
v -0.1046875 3.003125 0.209375
v -0.1046875 3.003125 0.140625
v -0.1046875 1.934375 0.140625
v -0.1046875 1.934375 0.209375
v -0.0828125 3.003125 0.140625
v -0.0828125 3.003125 0.209375
v -0.0828125 1.934375 0.209375
v -0.0828125 1.934375 0.140625
vt 0.4375 0.96875
vt 0.4375 1
vt 0.40625 1
vt 0.40625 0.96875
vt 0.40625 0.96875
vt 0.40625 0.9375
vt 0.4375 0.9375
vt 0.4375 0.96875
vt 0.40625 1
vt 0.3984375 1
vt 0.3984375 0.46875
vt 0.40625 0.46875
vt 0.3125 0.46875
vt 0.3203125 0.46875
vt 0.3203125 1
vt 0.3125 1
vt 0.34375 1
vt 0.3359375 1
vt 0.3359375 0.46875
vt 0.34375 0.46875
vt 0.375 0.46875
vt 0.3828125 0.46875
vt 0.3828125 1
vt 0.375 1
vt 0.40625 1
vt 0.3984375 1
vt 0.3984375 0.46875
vt 0.40625 0.46875
vt 0.3125 0.46875
vt 0.3203125 0.46875
vt 0.3203125 1
vt 0.3125 1
vt 0.34375 1
vt 0.3359375 1
vt 0.3359375 0.46875
vt 0.34375 0.46875
vt 0.375 0.46875
vt 0.3828125 0.46875
vt 0.3828125 1
vt 0.375 1
vn 0 1 0
vn 0 -1 0
vn 1 0 0
vn -1 0 0
vn -1 0 0
vn 1 0 0
vn 0 0 -1
vn 0 0 1
vn 0 0 1
vn 0 0 -1
usemtl m_0
f 73/161/41 74/162/41 78/163/41 77/164/41
f 79/165/42 80/166/42 76/167/42 75/168/42
f 74/169/43 82/170/43 83/171/43 76/172/43
f 80/173/44 84/174/44 81/175/44 78/176/44
f 77/177/45 86/178/45 87/179/45 79/180/45
f 75/181/46 88/182/46 85/183/46 73/184/46
f 90/185/47 98/186/47 99/187/47 92/188/47
f 96/189/48 100/190/48 97/191/48 94/192/48
f 93/193/49 102/194/49 103/195/49 95/196/49
f 91/197/50 104/198/50 101/199/50 89/200/50
o f2_bone
v -0.0625 3 0.20625
v -0.0625 3 0.14375
v -0.0625 1.9375 0.20625
v -0.0625 1.9375 0.14375
v -0.125 3 0.14375
v -0.125 3 0.20625
v -0.125 1.9375 0.14375
v -0.125 1.9375 0.20625
vt 0.28125 1
vt 0.3125 1
vt 0.3125 0.46875
vt 0.28125 0.46875
vt 0.375 1
vt 0.40625 1
vt 0.40625 0.46875
vt 0.375 0.46875
vt 0.34375 1
vt 0.375 1
vt 0.375 0.46875
vt 0.34375 0.46875
vt 0.3125 1
vt 0.34375 1
vt 0.34375 0.46875
vt 0.3125 0.46875
vt 0.40625 1
vt 0.4375 1
vt 0.4375 0.96875
vt 0.40625 0.96875
vt 0.40625 0.96875
vt 0.4375 0.96875
vt 0.4375 0.9375
vt 0.40625 0.9375
vn 0 0 -1
vn 1 0 0
vn 0 0 1
vn -1 0 0
vn 0 1 0
vn 0 -1 0
usemtl m_0
f 108/204/51 111/203/51 109/202/51 106/201/51
f 107/208/52 108/207/52 106/206/52 105/205/52
f 112/212/53 107/211/53 105/210/53 110/209/53
f 111/216/54 112/215/54 110/214/54 109/213/54
f 110/220/55 105/219/55 106/218/55 109/217/55
f 111/224/56 108/223/56 107/222/56 112/221/56
o f3_bone
v -0.06875 2.8125 0.2
v -0.06875 2.8125 0.15
v -0.06875 1.9375 0.2
v -0.06875 1.9375 0.15
v -0.11875 2.8125 0.15
v -0.11875 2.8125 0.2
v -0.11875 1.9375 0.15
v -0.11875 1.9375 0.2
vt 0.4375 1
vt 0.46875 1
vt 0.46875 0.453125
vt 0.4375 0.453125
vt 0.53125 1
vt 0.5625 1
vt 0.5625 0.453125
vt 0.53125 0.453125
vt 0.5 1
vt 0.53125 1
vt 0.53125 0.453125
vt 0.5 0.453125
vt 0.46875 1
vt 0.5 1
vt 0.5 0.453125
vt 0.46875 0.453125
vt 0.40625 0.9375
vt 0.4375 0.9375
vt 0.4375 0.90625
vt 0.40625 0.90625
vt 0.40625 0.90625
vt 0.4375 0.90625
vt 0.4375 0.875
vt 0.40625 0.875
vn 0 0 -1
vn 1 0 0
vn 0 0 1
vn -1 0 0
vn 0 1 0
vn 0 -1 0
usemtl m_0
f 116/228/57 119/227/57 117/226/57 114/225/57
f 115/232/58 116/231/58 114/230/58 113/229/58
f 120/236/59 115/235/59 113/234/59 118/233/59
f 119/240/60 120/239/60 118/238/60 117/237/60
f 118/244/61 113/243/61 114/242/61 117/241/61
f 119/248/62 116/247/62 115/246/62 120/245/62
o f3_bone_shell
v -0.06562499999999999 2.815625 0.14687500000000003
v -0.12187500000000001 2.815625 0.146875
v -0.06562499999999999 1.934375 0.14687500000000003
v -0.12187500000000001 1.934375 0.146875
v -0.065625 2.815625 0.20312500000000003
v -0.12187500000000002 2.815625 0.203125
v -0.065625 1.934375 0.20312500000000003
v -0.12187500000000002 1.934375 0.203125
v -0.10156250000000001 2.815625 0.203125
v -0.1015625 2.815625 0.146875
v -0.1015625 1.934375 0.146875
v -0.10156250000000001 1.934375 0.203125
v -0.0859375 2.815625 0.14687500000000003
v -0.0859375 2.815625 0.203125
v -0.0859375 1.934375 0.203125
v -0.0859375 1.934375 0.14687500000000003
v -0.06562500000000002 2.815625 0.20312500000000003
v -0.06562500000000002 2.815625 0.146875
v -0.06562500000000002 1.934375 0.20312500000000003
v -0.06562500000000002 1.934375 0.146875
v -0.12187500000000001 2.815625 0.20312500000000003
v -0.12187500000000001 2.815625 0.146875
v -0.12187500000000001 1.934375 0.20312500000000003
v -0.12187500000000001 1.934375 0.146875
v -0.121875 2.815625 0.16718750000000002
v -0.065625 2.815625 0.16718750000000002
v -0.065625 1.934375 0.16718750000000002
v -0.121875 1.934375 0.16718750000000002
v -0.06562500000000002 2.815625 0.18281250000000004
v -0.12187500000000001 2.815625 0.18281250000000002
v -0.12187500000000001 1.934375 0.18281250000000002
v -0.06562500000000002 1.934375 0.18281250000000004
vt 0.40625 0.90625
vt 0.40625 0.875
vt 0.4375 0.875
vt 0.4375 0.90625
vt 0.5625 1
vt 0.5546875 1
vt 0.5546875 0.453125
vt 0.5625 0.453125
vt 0.46875 0.453125
vt 0.4765625 0.453125
vt 0.4765625 1
vt 0.46875 1
vt 0.5 1
vt 0.4921875 1
vt 0.4921875 0.453125
vt 0.5 0.453125
vt 0.53125 0.453125
vt 0.5390625 0.453125
vt 0.5390625 1
vt 0.53125 1
vt 0.4375 0.90625
vt 0.4375 0.9375
vt 0.40625 0.9375
vt 0.40625 0.90625
vt 0.5625 1
vt 0.5546875 1
vt 0.5546875 0.453125
vt 0.5625 0.453125
vt 0.46875 0.453125
vt 0.4765625 0.453125
vt 0.4765625 1
vt 0.46875 1
vt 0.5 1
vt 0.4921875 1
vt 0.4921875 0.453125
vt 0.5 0.453125
vt 0.53125 0.453125
vt 0.5390625 0.453125
vt 0.5390625 1
vt 0.53125 1
vn 0 -1 0
vn 2.220446049250313e-16 0 -1
vn -2.220446049250313e-16 0 1
vn -2.220446049250313e-16 0 1
vn 2.220446049250313e-16 0 -1
vn 0 1 0
vn 1 0 -8.027766485751131e-16
vn -1 0 8.027766485751131e-16
vn -1 0 -2.220446049250313e-16
vn 1 0 2.220446049250313e-16
usemtl m_0
f 127/249/63 128/250/63 124/251/63 123/252/63
f 122/253/64 130/254/64 131/255/64 124/256/64
f 128/257/65 132/258/65 129/259/65 126/260/65
f 125/261/66 134/262/66 135/263/66 127/264/66
f 123/265/67 136/266/67 133/267/67 121/268/67
f 137/269/68 138/270/68 142/271/68 141/272/68
f 138/273/69 146/274/69 147/275/69 140/276/69
f 144/277/70 148/278/70 145/279/70 142/280/70
f 141/281/71 150/282/71 151/283/71 143/284/71
f 139/285/72 152/286/72 149/287/72 137/288/72
o rad_bone_shell
v -0.046875 1.940625 0.221875
v -0.046875 1.940625 0.128125
v -0.046875 0.934375 0.221875
v -0.046875 0.934375 0.128125
v -0.140625 1.940625 0.221875
v -0.140625 1.940625 0.128125
v -0.140625 0.934375 0.221875
v -0.140625 0.934375 0.128125
v -0.053125 1.940625 0.19218749999999998
v -0.140625 1.940625 0.19218749999999998
v -0.140625 0.934375 0.19218749999999998
v -0.053125 0.934375 0.19218749999999998
v -0.140625 1.940625 0.1578125
v -0.046875 1.940625 0.1578125
v -0.046875 0.934375 0.1578125
v -0.140625 0.934375 0.1578125
v -0.046875 1.940625 0.128125
v -0.140625 1.940625 0.128125
v -0.046875 0.934375 0.128125
v -0.140625 0.934375 0.128125
v -0.046875 1.940625 0.221875
v -0.140625 1.940625 0.221875
v -0.046875 0.934375 0.221875
v -0.140625 0.934375 0.221875
v -0.0765625 1.940625 0.128125
v -0.0765625 1.940625 0.221875
v -0.0765625 0.934375 0.221875
v -0.0765625 0.934375 0.128125
v -0.1109375 1.940625 0.221875
v -0.1109375 1.940625 0.128125
v -0.1109375 0.934375 0.128125
v -0.1109375 0.934375 0.221875
vt 0.0625 0.84375
vt 0.0546875 0.84375
vt 0.0546875 0.46875
vt 0.0625 0.46875
vt 0.09375 0.46875
vt 0.1015625 0.46875
vt 0.1015625 0.84375
vt 0.09375 0.84375
vt 0.125 0.84375
vt 0.1171875 0.84375
vt 0.1171875 0.46875
vt 0.125 0.46875
vt 0.03125 0.46875
vt 0.0390625 0.46875
vt 0.0390625 0.84375
vt 0.03125 0.84375
vt 0.15625 0.8125
vt 0.15625 0.84375
vt 0.125 0.84375
vt 0.125 0.8125
vt 0.15625 0.78125
vt 0.15625 0.8125
vt 0.125 0.8125
vt 0.125 0.78125
vt 0.0625 0.84375
vt 0.0546875 0.84375
vt 0.0546875 0.46875
vt 0.0625 0.46875
vt 0.09375 0.46875
vt 0.1015625 0.46875
vt 0.1015625 0.84375
vt 0.09375 0.84375
vt 0.125 0.84375
vt 0.1171875 0.84375
vt 0.1171875 0.46875
vt 0.125 0.46875
vt 0.03125 0.46875
vt 0.0390625 0.46875
vt 0.0390625 0.84375
vt 0.03125 0.84375
vn -1 0 0
vn 0.9785497849867492 0 -0.20601048104984188
vn 1 0 0
vn -1 0 0
vn 0 1 0
vn 0 -1 0
vn 0 0 1
vn 0 0 -1
vn 0 0 -1
vn 0 0 1
usemtl m_0
f 157/289/73 162/290/73 163/291/73 159/292/73
f 155/293/74 164/294/74 161/295/74 153/296/74
f 154/297/75 166/298/75 167/299/75 156/300/75
f 160/301/76 168/302/76 165/303/76 158/304/76
f 169/305/77 170/306/77 174/307/77 173/308/77
f 172/309/78 171/310/78 175/311/78 176/312/78
f 173/313/79 178/314/79 179/315/79 175/316/79
f 171/317/80 180/318/80 177/319/80 169/320/80
f 170/321/81 182/322/81 183/323/81 172/324/81
f 176/325/82 184/326/82 181/327/82 174/328/82
o hum_bone_shell
v -0.04062500000000013 1.440625 0.12187500000000027
v -0.1468749999999999 1.440625 0.12187500000000026
v -0.040625000000000154 1.440625 0.22812500000000047
v -0.14687499999999992 1.440625 0.22812500000000044
v -0.11406250000000005 1.440625 0.22812500000000044
v -0.11406250000000002 1.440625 0.12187500000000026
v -0.07343750000000014 1.440625 0.12187500000000027
v -0.07343750000000017 1.440625 0.22812500000000044
v -0.11406250000000002 0.934375 0.12187500000000026
v -0.11406250000000005 0.934375 0.22812500000000044
v -0.07343750000000017 0.934375 0.22812500000000044
v -0.07343750000000014 0.934375 0.12187500000000027
v -0.1468749999999999 0.934375 0.12187500000000026
v -0.04062500000000013 0.934375 0.12187500000000027
v -0.040625000000000154 0.934375 0.22812500000000047
v -0.14687499999999992 0.934375 0.22812500000000044
v -0.040625000000000154 1.440625 0.22812500000000047
v -0.04062500000000013 1.440625 0.12187500000000027
v -0.14687499999999992 1.440625 0.22812500000000044
v -0.1468749999999999 1.440625 0.12187500000000026
v -0.1468749999999999 1.440625 0.1546875000000003
v -0.04062500000000014 1.440625 0.15468750000000034
v -0.04062500000000015 1.440625 0.19531250000000042
v -0.14687499999999992 1.440625 0.1953125000000004
v -0.04062500000000014 0.934375 0.15468750000000034
v -0.1468749999999999 0.934375 0.1546875000000003
v -0.14687499999999992 0.934375 0.1953125000000004
v -0.04062500000000015 0.934375 0.19531250000000042
v -0.04062500000000013 0.934375 0.12187500000000027
v -0.040625000000000154 0.934375 0.22812500000000047
v -0.14687499999999992 0.934375 0.22812500000000044
v -0.1468749999999999 0.934375 0.12187500000000026
vt 0.125 1
vt 0.1171875 1
vt 0.1171875 0.84375
vt 0.125 0.84375
vt 0.03125 0.84375
vt 0.0390625 0.84375
vt 0.0390625 1
vt 0.03125 1
vt 0.0625 1
vt 0.0546875 1
vt 0.0546875 0.84375
vt 0.0625 0.84375
vt 0.09375 0.84375
vt 0.1015625 0.84375
vt 0.1015625 1
vt 0.09375 1
vt 0.125 1
vt 0.1171875 1
vt 0.1171875 0.84375
vt 0.125 0.84375
vt 0.03125 0.84375
vt 0.0390625 0.84375
vt 0.0390625 1
vt 0.03125 1
vt 0.0625 1
vt 0.0546875 1
vt 0.0546875 0.84375
vt 0.0625 0.84375
vt 0.09375 0.84375
vt 0.1015625 0.84375
vt 0.1015625 1
vt 0.09375 1
vt 0.125 0.96875
vt 0.125 0.9375
vt 0.15625 0.9375
vt 0.15625 0.96875
vt 0.125 0.96875
vt 0.15625 0.96875
vt 0.15625 1
vt 0.125 1
vn 2.220446049250313e-16 0 -1
vn -2.220446049250313e-16 0 1
vn -2.220446049250313e-16 0 1
vn 2.220446049250313e-16 0 -1
vn 1 0 2.220446049250313e-16
vn -1 0 -2.220446049250313e-16
vn -1 0 -2.220446049250313e-16
vn 1 0 2.220446049250313e-16
vn 0 1 0
vn 0 -1 0
usemtl m_0
f 186/329/83 190/330/83 193/331/83 197/332/83
f 200/333/84 194/334/84 189/335/84 188/336/84
f 187/337/85 192/338/85 195/339/85 199/340/85
f 198/341/86 196/342/86 191/343/86 185/344/86
f 202/345/87 206/346/87 209/347/87 213/348/87
f 216/349/88 210/350/88 205/351/88 204/352/88
f 203/353/89 208/354/89 211/355/89 215/356/89
f 214/357/90 212/358/90 207/359/90 201/360/90
f 204/361/91 203/362/91 201/363/91 202/364/91
f 216/365/92 213/366/92 214/367/92 215/368/92
o cube
v 0.5 1.5 0.125
v 0.5 1.5 -0.125
v 0.5 0.75 0.125
v 0.5 0.75 -0.125
v 0.25 1.5 -0.125
v 0.25 1.5 0.125
v 0.25 0.75 -0.125
v 0.25 0.75 0.125
vt 0.203125 0.71875
vt 0.265625 0.71875
vt 0.265625 0.53125
vt 0.203125 0.53125
vt 0.140625 0.71875
vt 0.203125 0.71875
vt 0.203125 0.53125
vt 0.140625 0.53125
vt 0.515625 0.578125
vt 0.578125 0.578125
vt 0.578125 0.390625
vt 0.515625 0.390625
vt 0.265625 0.71875
vt 0.328125 0.71875
vt 0.328125 0.53125
vt 0.265625 0.53125
vt 0.265625 0.71875
vt 0.203125 0.71875
vt 0.203125 0.78125
vt 0.265625 0.78125
vt 0.328125 0.78125
vt 0.265625 0.78125
vt 0.265625 0.71875
vt 0.328125 0.71875
vn 0 0 -1
vn 1 0 0
vn 0 0 1
vn -1 0 0
vn 0 1 0
vn 0 -1 0
usemtl none
f 220/372/93 223/371/93 221/370/93 218/369/93
f 219/376/94 220/375/94 218/374/94 217/373/94
f 224/380/95 219/379/95 217/378/95 222/377/95
f 223/384/96 224/383/96 222/382/96 221/381/96
f 222/388/97 217/387/97 218/386/97 221/385/97
f 223/392/98 220/391/98 219/390/98 224/389/98
o cube
v -0.25 1.5 0.125
v -0.25 1.5 -0.125
v -0.25 0.75 0.125
v -0.25 0.75 -0.125
v -0.5 1.5 -0.125
v -0.5 1.5 0.125
v -0.5 0.75 -0.125
v -0.5 0.75 0.125
vt 0.203125 0.71875
vt 0.265625 0.71875
vt 0.265625 0.53125
vt 0.203125 0.53125
vt 0.140625 0.71875
vt 0.203125 0.71875
vt 0.203125 0.53125
vt 0.140625 0.53125
vt 0.515625 0.578125
vt 0.578125 0.578125
vt 0.578125 0.390625
vt 0.515625 0.390625
vt 0.265625 0.71875
vt 0.328125 0.71875
vt 0.328125 0.53125
vt 0.265625 0.53125
vt 0.265625 0.71875
vt 0.203125 0.71875
vt 0.203125 0.78125
vt 0.265625 0.78125
vt 0.328125 0.78125
vt 0.265625 0.78125
vt 0.265625 0.71875
vt 0.328125 0.71875
vn 0 0 -1
vn 1 0 0
vn 0 0 1
vn -1 0 0
vn 0 1 0
vn 0 -1 0
usemtl none
f 228/396/99 231/395/99 229/394/99 226/393/99
f 227/400/100 228/399/100 226/398/100 225/397/100
f 232/404/101 227/403/101 225/402/101 230/401/101
f 231/408/102 232/407/102 230/406/102 229/405/102
f 230/412/103 225/411/103 226/410/103 229/409/103
f 231/416/104 228/415/104 227/414/104 232/413/104
o cube
v 0.24375 0.75 0.125
v 0.24375 0.75 -0.125
v 0.24375 0 0.125
v 0.24375 0 -0.125
v -0.00625 0.75 -0.125
v -0.00625 0.75 0.125
v -0.00625 0 -0.125
v -0.00625 0 0.125
vt 0.203125 0.71875
vt 0.265625 0.71875
vt 0.265625 0.53125
vt 0.203125 0.53125
vt 0.140625 0.71875
vt 0.203125 0.71875
vt 0.203125 0.53125
vt 0.140625 0.53125
vt 0.515625 0.578125
vt 0.578125 0.578125
vt 0.578125 0.390625
vt 0.515625 0.390625
vt 0.265625 0.71875
vt 0.328125 0.71875
vt 0.328125 0.53125
vt 0.265625 0.53125
vt 0.265625 0.71875
vt 0.203125 0.71875
vt 0.203125 0.78125
vt 0.265625 0.78125
vt 0.328125 0.78125
vt 0.265625 0.78125
vt 0.265625 0.71875
vt 0.328125 0.71875
vn 0 0 -1
vn 1 0 0
vn 0 0 1
vn -1 0 0
vn 0 1 0
vn 0 -1 0
usemtl none
f 236/420/105 239/419/105 237/418/105 234/417/105
f 235/424/106 236/423/106 234/422/106 233/421/106
f 240/428/107 235/427/107 233/426/107 238/425/107
f 239/432/108 240/431/108 238/430/108 237/429/108
f 238/436/109 233/435/109 234/434/109 237/433/109
f 239/440/110 236/439/110 235/438/110 240/437/110
o cube
v 0.00625 0.75 0.125
v 0.00625 0.75 -0.125
v 0.00625 0 0.125
v 0.00625 0 -0.125
v -0.24375 0.75 -0.125
v -0.24375 0.75 0.125
v -0.24375 0 -0.125
v -0.24375 0 0.125
vt 0.203125 0.71875
vt 0.265625 0.71875
vt 0.265625 0.53125
vt 0.203125 0.53125
vt 0.140625 0.71875
vt 0.203125 0.71875
vt 0.203125 0.53125
vt 0.140625 0.53125
vt 0.515625 0.578125
vt 0.578125 0.578125
vt 0.578125 0.390625
vt 0.515625 0.390625
vt 0.265625 0.71875
vt 0.328125 0.71875
vt 0.328125 0.53125
vt 0.265625 0.53125
vt 0.265625 0.71875
vt 0.203125 0.71875
vt 0.203125 0.78125
vt 0.265625 0.78125
vt 0.328125 0.78125
vt 0.265625 0.78125
vt 0.265625 0.71875
vt 0.328125 0.71875
vn 0 0 -1
vn 1 0 0
vn 0 0 1
vn -1 0 0
vn 0 1 0
vn 0 -1 0
usemtl none
f 244/444/111 247/443/111 245/442/111 242/441/111
f 243/448/112 244/447/112 242/446/112 241/445/112
f 248/452/113 243/451/113 241/450/113 246/449/113
f 247/456/114 248/455/114 246/454/114 245/453/114
f 246/460/115 241/459/115 242/458/115 245/457/115
f 247/464/116 244/463/116 243/462/116 248/461/116